<?xml version="1.0" standalone="no"?>
<!DOCTYPE svg PUBLIC "-//W3C//DTD SVG 20010904//EN"
 "http://www.w3.org/TR/2001/REC-SVG-20010904/DTD/svg10.dtd">
<svg version="1.0" xmlns="http://www.w3.org/2000/svg"
 width="512.000000pt" height="512.000000pt" viewBox="0 0 512.000000 512.000000"
 preserveAspectRatio="xMidYMid meet">
<metadata>
Created by potrace 1.11, written by Peter Selinger 2001-2013
</metadata>
<g transform="translate(0.000000,512.000000) scale(0.100000,-0.100000)"
fill="#000000" stroke="none">
<path d="M1138 4904 c-47 -7 -90 -14 -95 -17 -5 -3 -31 -8 -57 -12 -27 -3 -53
-8 -58 -11 -5 -3 22 -38 61 -77 38 -40 84 -88 101 -107 18 -19 105 -111 194
-203 185 -193 246 -260 246 -267 0 -3 -62 -6 -137 -6 -189 -1 -357 -14 -505
-39 -16 -3 -43 -7 -60 -11 -87 -14 -183 -37 -259 -60 -46 -14 -93 -28 -103
-32 -11 -3 -55 -22 -98 -44 l-78 -38 80 -130 c44 -71 115 -187 159 -258 l78
-128 -203 -104 -203 -104 2 -285 2 -286 227 -128 c139 -79 225 -133 222 -140
-3 -7 -58 -56 -122 -110 -64 -54 -135 -113 -157 -133 -22 -19 -70 -60 -107
-92 l-68 -57 3 -160 2 -160 100 1 c217 2 455 14 545 29 126 21 184 36 379 101
90 30 166 53 168 51 3 -4 -10 -21 -65 -82 -160 -178 -251 -306 -346 -488 -29
-56 -88 -169 -131 -252 -43 -82 -98 -181 -122 -220 -46 -74 -51 -87 -30 -80 6
2 46 6 87 10 41 3 84 8 95 10 11 2 43 7 70 10 119 12 390 83 447 115 10 6 23
10 29 10 15 0 224 100 295 142 64 37 98 52 91 40 -5 -7 -12 -56 -22 -147 -4
-27 -8 -61 -10 -75 -5 -34 -14 -106 -20 -155 -4 -37 -21 -165 -30 -230 -2 -16
-7 -58 -10 -93 l-6 -62 28 12 c62 28 233 124 313 176 372 240 638 575 694 872
19 98 13 158 -15 178 -94 64 -240 236 -297 347 -33 67 -86 212 -96 265 -3 19
-9 46 -12 60 -10 41 -13 341 -4 400 5 30 11 73 14 95 9 64 34 173 62 273 15
51 25 95 22 97 -2 3 -22 7 -43 11 -67 10 -204 53 -258 80 -29 15 -82 46 -119
71 -242 160 -330 522 -190 786 44 84 138 172 229 215 77 37 79 37 203 36 115
0 132 -3 208 -32 138 -52 262 -134 391 -258 59 -56 75 -66 190 -109 69 -25
140 -53 156 -60 30 -14 30 -14 36 18 6 36 2 199 -5 236 -34 162 -97 280 -219
408 -89 94 -324 275 -294 227 3 -6 8 -39 12 -75 3 -35 8 -90 11 -123 18 -181
21 -211 20 -213 -1 -2 -192 120 -251 160 -209 142 -623 325 -845 373 -19 4
-39 9 -45 10 -5 1 -28 5 -50 9 -22 4 -43 9 -46 11 -28 17 -275 22 -381 8z"/>
<path d="M2190 4129 c-88 -17 -163 -72 -207 -154 -110 -206 -19 -478 200 -599
120 -66 274 -100 474 -105 21 -1 21 -2 -9 -78 -33 -87 -93 -279 -103 -333 -59
-313 -54 -535 14 -733 48 -137 118 -245 223 -342 107 -99 161 -124 618 -285
332 -117 507 -179 604 -214 55 -20 100 -35 101 -34 9 10 174 348 171 348 -3 0
-30 -6 -60 -14 -143 -38 -315 20 -407 135 -98 124 -120 292 -57 429 60 130
202 226 344 235 195 11 371 -117 420 -304 l11 -45 59 97 c32 54 108 174 167
268 60 94 107 172 105 173 -4 3 -83 43 -603 306 -438 221 -462 236 -486 310
-69 210 -328 385 -856 576 -83 30 -99 40 -165 105 -117 116 -271 217 -375 247
-56 17 -129 21 -183 11z m1320 -914 c36 -19 72 -92 67 -137 -15 -137 -188
-182 -264 -69 -26 38 -31 107 -11 144 39 75 131 102 208 62z"/>
</g>
</svg>
